<svg viewBox="0 0 24 24" xmlns="http://www.w3.org/2000/svg" xmlns:xlink="http://www.w3.org/1999/xlink" width="24" height="24" fill="none">
	<defs>
		<linearGradient id="paint_linear_0" x1="20.4101181" x2="13.4623451" y1="22.4444809" y2="9.22279358" gradientUnits="userSpaceOnUse">
			<stop stop-color="rgb(195.886,115.909,255)" offset="0" stop-opacity="1" />
			<stop stop-color="rgb(120.545,222.545,255)" offset="0.91785866" stop-opacity="1" />
		</linearGradient>
		<linearGradient id="paint_linear_1" x1="21.1874924" x2="19.1952991" y1="7.64146042" y2="4.28173828" gradientUnits="userSpaceOnUse">
			<stop stop-color="rgb(195.886,115.909,255)" offset="0" stop-opacity="1" />
			<stop stop-color="rgb(120.545,222.545,255)" offset="0.91785866" stop-opacity="1" />
		</linearGradient>
		<linearGradient id="paint_linear_2" x1="16.3122597" x2="5.95285082" y1="20.5696716" y2="3.09911919" gradientUnits="userSpaceOnUse">
			<stop stop-color="rgb(195.886,115.909,255)" offset="0" stop-opacity="1" />
			<stop stop-color="rgb(120.545,222.545,255)" offset="0.91785866" stop-opacity="1" />
		</linearGradient>
	</defs>
	<rect id="对话" width="24" height="24" x="0" y="0" />
	<g id="组合 2745">
		<path id="矢量 652" d="M11.1465 19.6708C12.2203 20.4478 13.5424 20.9059 14.9688 20.9059C15.8547 20.9059 16.699 20.7296 17.469 20.4101C18.2668 20.0796 20.9063 20.3121 20.9063 20.3121C20.9063 20.3121 20.6743 17.6733 21.006 16.8749C21.3237 16.1048 21.5 15.26 21.5 14.3746C21.5 12.2814 20.5166 10.4178 18.9835 9.22279C19.0763 9.73827 19.125 10.27 19.125 10.8121C19.125 15.4177 15.6298 19.207 11.1465 19.6708Z" fill="url(#paint_linear_0)" fill-rule="evenodd" />
		<path id="路径 33备份" d="M20.0156 4.28174L19.6034 5.34381L18.5313 5.77253L19.6034 6.18613L20.0156 7.25049L20.4007 6.18613L21.5 5.77253L20.4007 5.34381L20.0156 4.28174Z" fill="url(#paint_linear_1)" fill-rule="evenodd" />
		<path id="减去顶层" d="M17.9373 10.8179C17.9373 6.55492 14.4815 3.09912 10.2186 3.09912C5.95562 3.09912 2.49981 6.55492 2.49981 10.8179C2.49981 11.8645 2.70811 12.8624 3.0855 13.7725C3.47671 14.7159 3.20152 17.8349 3.20152 17.8349C3.20152 17.8349 6.32055 17.5597 7.26394 17.9509C8.17404 18.3283 9.17198 18.5366 10.2186 18.5366C14.4815 18.5366 17.9373 15.0808 17.9373 10.8179ZM8.80933 8.78985C9.43966 8.78985 9.95063 9.30087 9.95063 9.93115C9.95063 10.5614 9.43966 11.0725 8.80933 11.0725C8.179 11.0725 7.66803 10.5614 7.66803 9.93115C7.66803 9.30087 8.179 8.78985 8.80933 8.78985ZM13.5267 8.78985C14.1571 8.78985 14.668 9.30087 14.668 9.93115C14.668 10.5614 14.1571 11.0725 13.5267 11.0725C12.8964 11.0725 12.3854 10.5614 12.3854 9.93115C12.3854 9.30087 12.8964 8.78985 13.5267 8.78985Z" fill="url(#paint_linear_2)" fill-rule="evenodd" />
	</g>
</svg>
