{
  "accessors": [
    {
      "name": "shuizhi_1_positions",
      "componentType": 5126,
      "count": 348,
      "min": [
        -0.30000001192092896,
        -0.1071000024676323,
        -0.30000001192092896
      ],
      "max": [
        0.30000001192092896,
        0.46299999952316284,
        0.30000001192092896
      ],
      "type": "VEC3",
      "bufferView": 0,
      "byteOffset": 0
    },
    {
      "name": "shuizhi_1_normals",
      "componentType": 5126,
      "count": 348,
      "min": [
        -1,
        -1,
        -1
      ],
      "max": [
        1,
        1,
        1
      ],
      "type": "VEC3",
      "bufferView": 0,
      "byteOffset": 4944
    },
    {
      "name": "shuizhi_1_texcoords",
      "componentType": 5126,
      "count": 348,
      "min": [
        0,
        0
      ],
      "max": [
        1,
        1
      ],
      "type": "VEC2",
      "bufferView": 1,
      "byteOffset": 0
    },
    {
      "name": "shuizhi_1_0_indices",
      "componentType": 5123,
      "count": 618,
      "min": [
        0
      ],
      "max": [
        331
      ],
      "type": "SCALAR",
      "bufferView": 2,
      "byteOffset": 0
    },
    {
      "name": "shuizhi_1_1_indices",
      "componentType": 5123,
      "count": 234,
      "min": [
        84
      ],
      "max": [
        347
      ],
      "type": "SCALAR",
      "bufferView": 2,
      "byteOffset": 1236
    },
    {
      "name": "shuizhi_1_2_indices",
      "componentType": 5123,
      "count": 96,
      "min": [
        152
      ],
      "max": [
        183
      ],
      "type": "SCALAR",
      "bufferView": 2,
      "byteOffset": 1704
    },
    {
      "name": "Object001_1_positions",
      "componentType": 5126,
      "count": 32,
      "min": [
        -0.037700001150369644,
        0.2542000114917755,
        0.13950000703334808
      ],
      "max": [
        0.037700001150369644,
        0.44519999623298645,
        0.24889999628067017
      ],
      "type": "VEC3",
      "bufferView": 0,
      "byteOffset": 4176
    },
    {
      "name": "Object001_1_normals",
      "componentType": 5126,
      "count": 32,
      "min": [
        -0.9816907048225403,
        -0.9756511449813843,
        -0.8948268294334412
      ],
      "max": [
        0.9816907048225403,
        0.9756511449813843,
        0.8948867321014404
      ],
      "type": "VEC3",
      "bufferView": 0,
      "byteOffset": 9120
    },
    {
      "name": "Object001_1_texcoords",
      "componentType": 5126,
      "count": 32,
      "min": [
        0.9810000061988831,
        0.4043000042438507
      ],
      "max": [
        1,
        0.5957000255584717
      ],
      "type": "VEC2",
      "bufferView": 1,
      "byteOffset": 2784
    },
    {
      "name": "Object001_1_0_indices",
      "componentType": 5123,
      "count": 60,
      "min": [
        0
      ],
      "max": [
        31
      ],
      "type": "SCALAR",
      "bufferView": 2,
      "byteOffset": 1896
    },
    {
      "name": "Object002_1_positions",
      "componentType": 5126,
      "count": 32,
      "min": [
        -0.037700001150369644,
        0.2542000114917755,
        -0.2476000040769577
      ],
      "max": [
        0.037700001150369644,
        0.44519999623298645,
        -0.13809999823570251
      ],
      "type": "VEC3",
      "bufferView": 0,
      "byteOffset": 4560
    },
    {
      "name": "Object002_1_normals",
      "componentType": 5126,
      "count": 32,
      "min": [
        -0.9816907048225403,
        -0.9756511449813843,
        -0.8948867321014404
      ],
      "max": [
        0.9816907048225403,
        0.9756511449813843,
        0.8948268294334412
      ],
      "type": "VEC3",
      "bufferView": 0,
      "byteOffset": 9504
    },
    {
      "name": "Object002_1_texcoords",
      "componentType": 5126,
      "count": 32,
      "min": [
        0.9810000061988831,
        0.4043000042438507
      ],
      "max": [
        1,
        0.5957000255584717
      ],
      "type": "VEC2",
      "bufferView": 1,
      "byteOffset": 3040
    },
    {
      "name": "Object002_1_0_indices",
      "componentType": 5123,
      "count": 60,
      "min": [
        0
      ],
      "max": [
        31
      ],
      "type": "SCALAR",
      "bufferView": 2,
      "byteOffset": 2016
    }
  ],
  "asset": {
    "generator": "obj2gltf",
    "version": "2.0"
  },
  "buffers": [
    {
      "name": "shuizhi",
      "byteLength": 15320,
      "uri": "data:application/octet-stream;base64,"
    }
  ],
  "bufferViews": [
    {
      "name": "bufferView_0",
      "buffer": 0,
      "byteLength": 9888,
      "byteOffset": 0,
      "byteStride": 12,
      "target": 34962
    },
    {
      "name": "bufferView_1",
      "buffer": 0,
      "byteLength": 3296,
      "byteOffset": 9888,
      "byteStride": 8,
      "target": 34962
    },
    {
      "name": "bufferView_2",
      "buffer": 0,
      "byteLength": 2136,
      "byteOffset": 13184,
      "target": 34963
    }
  ],
  "materials": [
    {
      "name": "01___Default",
      "pbrMetallicRoughness": {
        "baseColorFactor": [
          0.7451,
          0.1059,
          0,
          1
        ],
        "metallicFactor": 0,
        "roughnessFactor": 0.99
      },
      "emissiveFactor": [
        0,
        0,
        0
      ],
      "alphaMode": "OPAQUE",
      "doubleSided": false
    },
    {
      "name": "baise",
      "pbrMetallicRoughness": {
        "baseColorFactor": [
          0.8902,
          0.8902,
          0.8902,
          1
        ],
        "metallicFactor": 0,
        "roughnessFactor": 0.99
      },
      "emissiveFactor": [
        0,
        0,
        0
      ],
      "alphaMode": "OPAQUE",
      "doubleSided": false
    },
    {
      "name": "huise",
      "pbrMetallicRoughness": {
        "baseColorFactor": [
          0.5608,
          0.5608,
          0.5608,
          1
        ],
        "metallicFactor": 0,
        "roughnessFactor": 0.99
      },
      "emissiveFactor": [
        0,
        0,
        0
      ],
      "alphaMode": "OPAQUE",
      "doubleSided": false
    }
  ],
  "meshes": [
    {
      "name": "shuizhi_1",
      "primitives": [
        {
          "attributes": {
            "POSITION": 0,
            "NORMAL": 1,
            "TEXCOORD_0": 2
          },
          "indices": 3,
          "material": 0,
          "mode": 4
        },
        {
          "attributes": {
            "POSITION": 0,
            "NORMAL": 1,
            "TEXCOORD_0": 2
          },
          "indices": 4,
          "material": 1,
          "mode": 4
        },
        {
          "attributes": {
            "POSITION": 0,
            "NORMAL": 1,
            "TEXCOORD_0": 2
          },
          "indices": 5,
          "material": 2,
          "mode": 4
        }
      ]
    },
    {
      "name": "Object001_1",
      "primitives": [
        {
          "attributes": {
            "POSITION": 6,
            "NORMAL": 7,
            "TEXCOORD_0": 8
          },
          "indices": 9,
          "material": 1,
          "mode": 4
        }
      ]
    },
    {
      "name": "Object002_1",
      "primitives": [
        {
          "attributes": {
            "POSITION": 10,
            "NORMAL": 11,
            "TEXCOORD_0": 12
          },
          "indices": 13,
          "material": 1,
          "mode": 4
        }
      ]
    }
  ],
  "nodes": [
    {
      "name": "shuizhi",
      "mesh": 0
    },
    {
      "name": "Object001",
      "mesh": 1
    },
    {
      "name": "Object002",
      "mesh": 2
    }
  ],
  "scene": 0,
  "scenes": [
    {
      "nodes": [
        0,
        1,
        2
      ]
    }
  ]
}
